<?xml version="1.0" encoding="UTF-8" standalone="no"?>
<!-- Created with Inkscape (http://www.inkscape.org/) -->

<svg
   xmlns:dc="http://purl.org/dc/elements/1.1/"
   xmlns:cc="http://creativecommons.org/ns#"
   xmlns:rdf="http://www.w3.org/1999/02/22-rdf-syntax-ns#"
   xmlns:svg="http://www.w3.org/2000/svg"
   xmlns="http://www.w3.org/2000/svg"
   xmlns:sodipodi="http://sodipodi.sourceforge.net/DTD/sodipodi-0.dtd"
   xmlns:inkscape="http://www.inkscape.org/namespaces/inkscape"
   width="1280mm"
   height="880mm"
   viewBox="0 0 4535.4331 3118.1103"
   id="svg4240"
   version="1.1"
   inkscape:version="0.92.1 r15371"
   sodipodi:docname="meca.svg">
  <sodipodi:namedview
     id="base"
     pagecolor="#ffffff"
     bordercolor="#666666"
     borderopacity="1.0"
     inkscape:pageopacity="0.0"
     inkscape:pageshadow="2"
     inkscape:zoom="1"
     inkscape:cx="4121.2043"
     inkscape:cy="2941.5309"
     inkscape:document-units="mm"
     inkscape:current-layer="layer1"
     showgrid="false"
     inkscape:window-width="1920"
     inkscape:window-height="995"
     inkscape:window-x="1280"
     inkscape:window-y="0"
     inkscape:window-maximized="1"
     inkscape:snap-bbox="true"
     inkscape:object-paths="true"
     inkscape:snap-intersection-paths="true"
     inkscape:snap-smooth-nodes="true"
     inkscape:snap-midpoints="true"
     showguides="true"
     inkscape:guide-bbox="true"
     inkscape:measure-start="3837.47,2880.75"
     inkscape:measure-end="3837.47,2931.66"
     inkscape:snap-global="true" />
  <title
     id="title4788">Découpage Laser</title>
  <defs
     id="defs4242" />
  <metadata
     id="metadata4245">
    <rdf:RDF>
      <cc:Work
         rdf:about="">
        <dc:format>image/svg+xml</dc:format>
        <dc:type
           rdf:resource="http://purl.org/dc/dcmitype/StillImage" />
        <dc:title>Découpage Laser</dc:title>
        <dc:creator>
          <cc:Agent>
            <dc:title />
          </cc:Agent>
        </dc:creator>
        <dc:publisher>
          <cc:Agent>
            <dc:title>Fablab Lannion</dc:title>
          </cc:Agent>
        </dc:publisher>
        <dc:source>http://fablab-lannion.org:8080/wiki/index.php?title=Chaine_logiciel_pour_d%C3%A9coupeuse_laser#Inkscape</dc:source>
        <dc:contributor>
          <cc:Agent>
            <dc:title>JJL</dc:title>
          </cc:Agent>
        </dc:contributor>
        <cc:license
           rdf:resource="http://creativecommons.org/licenses/by-sa/3.0/" />
      </cc:Work>
      <cc:License
         rdf:about="http://creativecommons.org/licenses/by-sa/3.0/">
        <cc:permits
           rdf:resource="http://creativecommons.org/ns#Reproduction" />
        <cc:permits
           rdf:resource="http://creativecommons.org/ns#Distribution" />
        <cc:requires
           rdf:resource="http://creativecommons.org/ns#Notice" />
        <cc:requires
           rdf:resource="http://creativecommons.org/ns#Attribution" />
        <cc:permits
           rdf:resource="http://creativecommons.org/ns#DerivativeWorks" />
        <cc:requires
           rdf:resource="http://creativecommons.org/ns#ShareAlike" />
      </cc:License>
    </rdf:RDF>
  </metadata>
  <g
     transform="translate(0,2065.7481)"
     id="layer1"
     inkscape:groupmode="layer"
     inkscape:label="Calque 1">
    <path
       transform="translate(0,-2065.7481)"
       style="fill:none;stroke:#ff0000"
       id="box_bottom"
       d="m 3751.4241,23.926931 h 42.1837 v 11.338583 h 41.6168 V 23.926931 h 42.3727 v 11.338583 h 41.6168 V 23.926931 h 42.3727 v 11.338583 h 41.6168 V 23.926931 h 42.3727 v 11.338583 h 41.6168 V 23.926931 h 42.1837 v 42.183727 h -11.3386 v 41.616802 h 11.3386 v 42.3727 h -11.3386 v 41.6168 h 11.3386 v 42.3727 h -11.3386 v 41.6168 h 11.3386 v 42.3727 h -11.3386 v 41.6168 h 11.3386 v 42.18373 h -42.1837 V 390.5411 h -41.6168 v 11.33859 h -42.3727 V 390.5411 h -41.6168 v 11.33859 h -42.3727 V 390.5411 h -41.6168 v 11.33859 h -42.3727 V 390.5411 h -41.6168 v 11.33859 h -42.1837 v -42.18373 h 11.3386 v -41.6168 h -11.3386 v -42.3727 h 11.3386 v -41.6168 h -11.3386 v -42.3727 h 11.3386 v -41.6168 h -11.3386 v -42.3727 h 11.3386 V 66.110658 h -11.3386 z"
       inkscape:connector-curvature="0" />
    <path
       transform="translate(0,-2065.7481)"
       style="fill:none;stroke:#ff0000"
       id="box_top"
       d="m 4140.7154,23.926931 h 42.1837 v 11.338583 h 41.6168 V 23.926931 h 42.3727 v 11.338583 h 41.6168 V 23.926931 h 42.3727 v 11.338583 h 41.6168 V 23.926931 h 42.3727 v 11.338583 h 41.6168 V 23.926931 h 42.1838 v 42.183727 h -11.3386 v 41.616802 h 11.3386 v 42.3727 h -11.3386 v 41.6168 h 11.3386 v 42.3727 h -11.3386 v 41.6168 h 11.3386 v 42.3727 h -11.3386 v 41.6168 h 11.3386 v 42.18373 h -42.1838 V 390.5411 h -41.6168 v 11.33859 h -42.3727 V 390.5411 h -41.6168 v 11.33859 h -42.3727 V 390.5411 h -41.6168 v 11.33859 h -42.3727 V 390.5411 h -41.6168 v 11.33859 h -42.1837 v -42.18373 h 11.3386 v -41.6168 h -11.3386 v -42.3727 h 11.3386 v -41.6168 h -11.3386 v -42.3727 h 11.3386 v -41.6168 h -11.3386 v -42.3727 h 11.3386 V 66.110658 h -11.3386 z"
       inkscape:connector-curvature="0" />
    <path
       transform="translate(0,-2065.7481)"
       style="fill:none;stroke:#ff0000"
       id="box_font"
       d="m 4140.7154,424.55685 h 41.8058 v -11.33858 h 42.3727 v 11.33858 h 41.6168 v -11.33858 h 42.3727 v 11.33858 h 41.6168 v -11.33858 h 42.3727 v 11.33858 h 41.6168 v -11.33858 h 42.3727 v 11.33858 h 41.8058 v 55.62205 h -11.3386 v 55.05512 h 11.3386 v 55.62204 h -41.8058 v 11.33859 h -42.3727 v -11.33859 h -41.6168 v 11.33859 h -42.3727 v -11.33859 h -41.6168 v 11.33859 h -42.3727 v -11.33859 h -41.6168 v 11.33859 h -42.3727 v -11.33859 h -41.8058 v -55.62204 h 11.3386 V 480.1789 h -11.3386 z"
       inkscape:connector-curvature="0" />
    <path
       transform="translate(0,-2065.7481)"
       style="fill:none;stroke:#ff0000"
       id="box_back"
       d="m 3751.4241,424.55685 h 41.8057 v -11.33858 h 42.3727 v 11.33858 h 41.6168 v -11.33858 h 42.3727 v 11.33858 h 41.6168 v -11.33858 h 42.3727 v 11.33858 h 41.6168 v -11.33858 h 42.3727 v 11.33858 h 41.8058 v 55.62205 h -11.3386 v 55.05512 h 11.3386 v 55.62204 h -41.8058 v 11.33859 h -42.3727 v -11.33859 h -41.6168 v 11.33859 h -42.3727 v -11.33859 h -41.6168 v 11.33859 h -42.3727 v -11.33859 h -41.6168 v 11.33859 h -42.3727 v -11.33859 h -41.8057 v -55.62204 h 11.3386 V 480.1789 h -11.3386 z"
       inkscape:connector-curvature="0" />
    <path
       transform="translate(0,-2065.7481)"
       style="fill:none;stroke:#ff0000"
       id="box_left_side"
       d="m 4152.054,624.87181 h 30.4672 v -11.33858 h 42.3727 v 11.33858 h 41.6168 v -11.33858 h 42.3727 v 11.33858 h 41.6168 v -11.33858 h 42.3727 v 11.33858 h 41.6168 v -11.33858 h 42.3727 v 11.33858 h 30.4672 v 55.2441 h 11.3386 v 55.81102 h -11.3386 v 55.2441 h -30.4672 v 11.33858 h -42.3727 v -11.33858 h -41.6168 v 11.33858 h -42.3727 v -11.33858 h -41.6168 v 11.33858 h -42.3727 v -11.33858 h -41.6168 v 11.33858 h -42.3727 v -11.33858 h -30.4672 v -55.2441 h -11.3386 v -55.81102 h 11.3386 z"
       inkscape:connector-curvature="0" />
    <path
       transform="translate(0,-2065.7481)"
       style="fill:none;stroke:#ff0000"
       id="box_right_side"
       d="m 3762.7627,624.87181 h 30.4671 v -11.33858 h 42.3727 v 11.33858 h 41.6168 v -11.33858 h 42.3727 v 11.33858 h 41.6168 v -11.33858 h 42.3727 v 11.33858 h 41.6168 v -11.33858 h 42.3727 v 11.33858 h 30.4672 v 55.2441 h 11.3386 v 55.81102 h -11.3386 v 55.2441 h -30.4672 v 11.33858 h -42.3727 v -11.33858 h -41.6168 v 11.33858 h -42.3727 v -11.33858 h -41.6168 v 11.33858 h -42.3727 v -11.33858 h -41.6168 v 11.33858 h -42.3727 v -11.33858 h -30.4671 v -55.2441 h -11.3386 v -55.81102 h 11.3386 z"
       inkscape:connector-curvature="0" />
    <g
       id="g5497">
      <rect
         style="opacity:1;fill:none;fill-opacity:1;fill-rule:nonzero;stroke:#ff0000;stroke-width:0.33218506;stroke-linecap:round;stroke-linejoin:round;stroke-miterlimit:4;stroke-dasharray:none;stroke-dashoffset:0;stroke-opacity:1"
         id="rect5053-7"
         width="77.620575"
         height="42.1875"
         x="3901.5901"
         y="-1962.4449" />
      <circle
         style="opacity:1;fill:none;fill-opacity:1;fill-rule:nonzero;stroke:#ff0000;stroke-width:0.33218506;stroke-linecap:round;stroke-linejoin:round;stroke-miterlimit:4;stroke-dasharray:none;stroke-dashoffset:0;stroke-opacity:1"
         id="path5055-5"
         cx="3890.4619"
         cy="-1941.3512"
         r="3.3772147" />
      <circle
         cy="-1941.3512"
         cx="3990.3389"
         id="circle5059-3"
         style="opacity:1;fill:none;fill-opacity:1;fill-rule:nonzero;stroke:#ff0000;stroke-width:0.33218503;stroke-linecap:round;stroke-linejoin:round;stroke-miterlimit:4;stroke-dasharray:none;stroke-dashoffset:0;stroke-opacity:1"
         r="3.3772147" />
    </g>
    <path
       inkscape:connector-curvature="0"
       id="path5487"
       style="fill:none;stroke:#000000;stroke-width:0.60197955"
       d="m 3908.4038,-1498.0385 -9.88,-17.1139 c 0.017,0.4658 0.039,0.9268 0.066,1.383 0.017,0.39 0.031,0.8037 0.041,1.2408 0.017,0.4278 0.026,0.8082 0.026,1.1411 v 13.349 h -2.2274 v -20.095 h 2.9089 l 9.9846,17.2284 c -0.027,-0.4658 -0.053,-0.9318 -0.078,-1.3978 -0.017,-0.3991 -0.034,-0.8317 -0.052,-1.2977 -0.017,-0.4754 -0.026,-0.927 -0.026,-1.3549 v -13.178 h 2.2538 v 20.095 h -3.0139 z m -15.4489,-10.1401 c 0,1.5688 -0.2095,2.995 -0.6287,4.2786 -0.4106,1.2836 -1.0092,2.3817 -1.7955,3.2944 -0.7862,0.9127 -1.747,1.6163 -2.8826,2.1107 -1.1355,0.4945 -2.4239,0.7418 -3.8653,0.7418 -1.5202,0 -2.8523,-0.2568 -3.9965,-0.7702 -1.1445,-0.5229 -2.0968,-1.2454 -2.8568,-2.1676 -0.7599,-0.932 -1.332,-2.035 -1.7164,-3.309 -0.3845,-1.2742 -0.5767,-2.667 -0.5767,-4.1787 0,-1.5688 0.2009,-2.9854 0.6029,-4.25 0.4018,-1.2646 0.9915,-2.339 1.7691,-3.2232 0.7774,-0.8938 1.7339,-1.5784 2.8694,-2.0537 1.1443,-0.4849 2.4547,-0.7274 3.9311,-0.7274 1.4675,0 2.7692,0.2425 3.9049,0.7274 1.1443,0.485 2.1008,1.1743 2.8696,2.0679 0.7773,0.8938 1.3669,1.973 1.7689,3.2375 0.4018,1.2645 0.6026,2.6717 0.6026,4.2215 z m -2.555,0 c 0,-1.2075 -0.1441,-2.3056 -0.4324,-3.2943 -0.2796,-0.989 -0.6989,-1.8352 -1.2581,-2.5388 -0.5503,-0.7036 -1.236,-1.2456 -2.0571,-1.6259 -0.8211,-0.3802 -1.769,-0.5703 -2.8434,-0.5703 -1.1007,0 -2.066,0.1901 -2.8959,0.5703 -0.8297,0.3803 -1.5242,0.9223 -2.0834,1.6259 -0.5504,0.7036 -0.9654,1.5498 -1.2449,2.5388 -0.2708,0.9887 -0.4062,2.0868 -0.4062,3.2943 0,1.2074 0.1398,2.315 0.4194,3.3228 0.2883,0.9985 0.7075,1.8638 1.2578,2.5958 0.5592,0.7225 1.2494,1.2883 2.0705,1.6972 0.8297,0.3994 1.7819,0.5991 2.8566,0.5991 1.1529,0 2.1444,-0.2045 2.9743,-0.6134 0.8387,-0.4087 1.5245,-0.9744 2.0573,-1.6969 0.5416,-0.7323 0.939,-1.6023 1.1924,-2.61 0.262,-1.0079 0.3931,-2.1061 0.3931,-3.2946 z m -22.0005,10.1401 v -20.095 h 2.5026 v 20.095 z m -7.6917,0 -9.8799,-17.1139 c 0.017,0.4658 0.039,0.9268 0.066,1.383 0.017,0.39 0.031,0.8037 0.041,1.2408 0.017,0.4278 0.026,0.8082 0.026,1.1411 v 13.349 h -2.2276 v -20.095 h 2.909 l 9.9847,17.2284 c -0.027,-0.4658 -0.053,-0.9318 -0.078,-1.3978 -0.017,-0.3991 -0.034,-0.8317 -0.052,-1.2977 -0.017,-0.4754 -0.026,-0.927 -0.026,-1.3549 v -13.178 h 2.2538 v 20.095 h -3.0139 z m -19.3928,0 -9.8801,-17.1139 c 0.017,0.4658 0.039,0.9268 0.066,1.383 0.017,0.39 0.031,0.8037 0.041,1.2408 0.017,0.4278 0.026,0.8082 0.026,1.1411 v 13.349 h -2.2278 v -20.095 h 2.9089 l 9.9849,17.2284 c -0.027,-0.4658 -0.053,-0.9318 -0.078,-1.3978 -0.017,-0.3991 -0.034,-0.8317 -0.052,-1.2977 -0.017,-0.4754 -0.026,-0.927 -0.026,-1.3549 v -13.178 h 2.2536 v 20.095 h -3.0137 z m -16.8118,0 -2.1096,-5.8757 h -8.4124 l -2.1225,5.8757 h -2.5948 l 7.5346,-20.095 h 2.8434 l 7.4165,20.095 z m -5.2281,-14.6325 c -0.1397,-0.3804 -0.2752,-0.7655 -0.4063,-1.1553 -0.1225,-0.3899 -0.2317,-0.7416 -0.3276,-1.0553 -0.096,-0.3233 -0.1789,-0.5896 -0.249,-0.7986 -0.061,-0.2188 -0.097,-0.3519 -0.1066,-0.3994 -0.017,0.047 -0.057,0.1805 -0.1185,0.3994 -0.061,0.2186 -0.1439,0.4895 -0.249,0.8127 -0.096,0.3234 -0.2095,0.68 -0.3406,1.0698 -0.1225,0.3898 -0.2491,0.7748 -0.3801,1.1552 l -2.3586,6.6033 h 6.9055 l -2.3716,-6.6318 z m -22.7998,14.6325 v -20.095 h 2.5026 v 17.8701 h 9.3296 v 2.2249 z m 51.5072,-117.1903 -11.2843,0.027 -21.646,62.7326 h 9.7645 l 5.15,-14.8332 23.2,-0.054 12.7095,37.565 12.4039,0.02 -30.2976,-85.4504 z m -6.3852,14.5346 8.3734,24.1296 -16.7128,0.041 8.3394,-24.17 z m 40.5502,-15.9061 0.049,40.1705 19.0404,-0.019 c 17.8202,-0.1777 15.7596,-18.7627 6.019,-20.5942 8.7714,-4.1502 6.6351,-19.3831 -3.5082,-19.556 z m 18.6197,6.738 c 5.8753,0.019 5.9294,10.0146 0,10.0493 h -10.7417 v -10.0425 z m -10.7077,16.2379 h 11.9494 c 6.4053,0.3516 6.0102,10.0687 0,10.565 h -11.9902 z m -103.8317,-40.4827 c -4.3348,0 -7.8514,3.5166 -7.8514,7.8513 v 136.4286 c 0,4.3344 3.5166,7.8511 7.8514,7.8511 h 136.7171 c 4.3347,0 7.8513,-3.5167 7.8513,-7.8511 v -136.4286 c 0,-4.3347 -3.5166,-7.8513 -7.8513,-7.8513 z m 0,1.7408 h 136.7171 c 3.4002,0 6.1102,2.7102 6.1102,6.1105 v 136.4286 c 0,3.4 -2.71,6.1104 -6.1102,6.1104 h -136.7171 c -3.4003,0 -6.1105,-2.7104 -6.1105,-6.1104 v -136.4286 c 0,-3.4003 2.7102,-6.1105 6.1105,-6.1105 z m 96.1103,62.4108 0.047,40.1706 19.0401,-0.02 c 17.8204,-0.1779 15.7597,-18.7629 6.019,-20.5943 8.7716,-4.1504 6.6353,-19.3833 -3.5082,-19.556 z m 18.6194,6.738 c 5.8754,0.02 5.9297,10.0148 0,10.0494 h -10.7414 v -10.0426 z m -10.7075,16.2377 h 11.9495 c 6.4051,0.352 6.0104,10.0689 0,10.5652 h -11.9902 z m -94.5348,-69.0778 26.9677,0.039 0.02,6.8826 -19.1353,-0.039 -0.02,10.3334 15.9754,0.02 v 6.3203 h -15.9559 v 16.6344 h -7.8518 z m -0.02,46.1224 h 7.7553 v 33.2689 h 20.5506 v 6.8436 h -28.2863 z"
       sodipodi:nodetypes="ccccscccccccscccccscccscccscccscccsscccscccscccscccscccccccccscccccccscccccccccscccccccscccccccccccccccccccccccccccccccccccccccccccccccccccccccccccccccccsssssssssssssssssscccccccccccccccccccccccccccccccccc" />
    <rect
       y="-1920.877"
       x="3634.4443"
       height="42.1875"
       width="77.620575"
       id="rect5053-2"
       style="opacity:1;fill:none;fill-opacity:1;fill-rule:nonzero;stroke:#ff0000;stroke-width:0.33218506;stroke-linecap:round;stroke-linejoin:round;stroke-miterlimit:4;stroke-dasharray:none;stroke-dashoffset:0;stroke-opacity:1" />
    <circle
       r="3.3772147"
       cy="-1899.7832"
       cx="3623.3162"
       id="path5055-7"
       style="opacity:1;fill:none;fill-opacity:1;fill-rule:nonzero;stroke:#ff0000;stroke-width:0.33218506;stroke-linecap:round;stroke-linejoin:round;stroke-miterlimit:4;stroke-dasharray:none;stroke-dashoffset:0;stroke-opacity:1" />
    <circle
       r="3.3772147"
       style="opacity:1;fill:none;fill-opacity:1;fill-rule:nonzero;stroke:#ff0000;stroke-width:0.33218503;stroke-linecap:round;stroke-linejoin:round;stroke-miterlimit:4;stroke-dasharray:none;stroke-dashoffset:0;stroke-opacity:1"
       id="circle5059-0"
       cx="3723.1931"
       cy="-1899.7832" />
    <path
       style="fill:none;stroke:#ff0000"
       id="path5371"
       d="m 3463.4909,-2041.6101 h 19.0866 v 11.3386 h 18.5197 v -11.3386 h 19.2756 v 11.3386 h 18.5197 v -11.3386 h 19.2755 v 11.3386 h 18.5197 v -11.3386 h 19.0866 v 94.4882 h -19.0866 v -11.3386 h -18.5197 v 11.3386 h -19.2755 v -11.3386 h -18.5197 v 11.3386 h -19.2756 v -11.3386 h -18.5197 v 11.3386 h -19.0866 z"
       inkscape:connector-curvature="0"
       sodipodi:nodetypes="ccccccccccccccccccccccccccccc" />
    <path
       style="fill:none;stroke:#ff0000"
       id="path5375"
       d="m 3607.1129,-1924.4447 h 18.7087 v -11.3386 h 19.2756 v 11.3386 h 18.5197 v -11.3386 h 19.2756 v 11.3386 h 18.5196 v -11.3386 h 19.2756 v 11.3386 h 18.7087 v 49.3228 h -18.7087 v 11.3386 h -19.2756 v -11.3386 h -18.5196 v 11.3386 h -19.2756 v -11.3386 h -18.5197 v 11.3386 h -19.2756 v -11.3386 h -18.7087 z"
       inkscape:connector-curvature="0" />
    <path
       style="fill:none;stroke:#ff0000"
       id="path5377"
       d="m 3463.4909,-1924.4447 h 18.7086 v -11.3386 h 19.2756 v 11.3386 h 18.5197 v -11.3386 h 19.2756 v 11.3386 h 18.5197 v -11.3386 h 19.2756 v 11.3386 h 18.7086 v 49.3228 h -18.7086 v 11.3386 h -19.2756 v -11.3386 h -18.5197 v 11.3386 h -19.2756 v -11.3386 h -18.5197 v 11.3386 h -19.2756 v -11.3386 h -18.7086 z"
       inkscape:connector-curvature="0" />
    <path
       sodipodi:nodetypes="ccccccccccccccccccccccccccccc"
       inkscape:connector-curvature="0"
       d="m 3607.8659,-2041.6101 h 19.0866 v 11.3386 h 18.5197 v -11.3386 h 19.2756 v 11.3386 h 18.5197 v -11.3386 h 19.2755 v 11.3386 h 18.5197 v -11.3386 h 19.0866 v 94.4882 h -19.0866 v -11.3386 h -18.5197 v 11.3386 h -19.2755 v -11.3386 h -18.5197 v 11.3386 h -19.2756 v -11.3386 h -18.5197 v 11.3386 h -19.0866 z"
       id="path5429"
       style="fill:none;stroke:#ff0000" />
    <circle
       style="opacity:1;fill:none;fill-opacity:1;fill-rule:nonzero;stroke:#ff0000;stroke-width:0.33218506;stroke-linecap:round;stroke-linejoin:round;stroke-miterlimit:4;stroke-dasharray:none;stroke-dashoffset:0;stroke-opacity:1"
       id="circle5458"
       cx="3517.0652"
       cy="-1899.7832"
       r="8.6921749" />
    <g
       transform="translate(262.84957,-2671.57)"
       id="g5477">
      <rect
         style="opacity:1;fill:none;fill-opacity:1;fill-rule:nonzero;stroke:#000000;stroke-width:0.33218506;stroke-linecap:round;stroke-linejoin:round;stroke-miterlimit:4;stroke-dasharray:none;stroke-dashoffset:0;stroke-opacity:1"
         id="rect5467"
         width="113.05364"
         height="42.1875"
         x="3072.3704"
         y="634.54669"
         ry="0" />
      <rect
         style="opacity:1;fill:none;fill-opacity:1;fill-rule:nonzero;stroke:#000000;stroke-width:0.33218506;stroke-linecap:round;stroke-linejoin:round;stroke-miterlimit:4;stroke-dasharray:none;stroke-dashoffset:0;stroke-opacity:1"
         id="rect5469"
         width="77.620575"
         height="42.1875"
         x="3090.0869"
         y="634.54669" />
      <circle
         style="opacity:1;fill:none;fill-opacity:1;fill-rule:nonzero;stroke:#000000;stroke-width:0.33218506;stroke-linecap:round;stroke-linejoin:round;stroke-miterlimit:4;stroke-dasharray:none;stroke-dashoffset:0;stroke-opacity:1"
         id="circle5471"
         cx="3078.9587"
         cy="655.64044"
         r="3.3772147" />
      <circle
         cy="655.64044"
         cx="3178.8357"
         id="circle5473"
         style="opacity:1;fill:none;fill-opacity:1;fill-rule:nonzero;stroke:#000000;stroke-width:0.33218503;stroke-linecap:round;stroke-linejoin:round;stroke-miterlimit:4;stroke-dasharray:none;stroke-dashoffset:0;stroke-opacity:1"
         r="3.3772147" />
      <circle
         style="opacity:1;fill:none;fill-opacity:1;fill-rule:nonzero;stroke:#000000;stroke-width:0.33218506;stroke-linecap:round;stroke-linejoin:round;stroke-miterlimit:4;stroke-dasharray:none;stroke-dashoffset:0;stroke-opacity:1"
         id="circle5475"
         cx="3116.3296"
         cy="655.64044"
         r="8.6921749" />
    </g>
    <g
       id="g5492"
       transform="translate(13.551179,11.619352)">
      <circle
         r="3.3772147"
         cy="-2005.9854"
         cx="3623.4177"
         id="circle5484"
         style="opacity:1;fill:none;fill-opacity:1;fill-rule:nonzero;stroke:#ff0000;stroke-width:0.33218506;stroke-linecap:round;stroke-linejoin:round;stroke-miterlimit:4;stroke-dasharray:none;stroke-dashoffset:0;stroke-opacity:1" />
      <circle
         r="3.3772147"
         style="opacity:1;fill:none;fill-opacity:1;fill-rule:nonzero;stroke:#ff0000;stroke-width:0.33218503;stroke-linecap:round;stroke-linejoin:round;stroke-miterlimit:4;stroke-dasharray:none;stroke-dashoffset:0;stroke-opacity:1"
         id="circle5486"
         cx="3697.4951"
         cy="-2005.9854" />
    </g>
    <rect
       style="opacity:1;fill:none;fill-opacity:1;fill-rule:nonzero;stroke:#ff0000;stroke-width:0.33218506;stroke-linecap:round;stroke-linejoin:round;stroke-miterlimit:4;stroke-dasharray:none;stroke-dashoffset:0;stroke-opacity:1"
       id="rect5499"
       width="77.620575"
       height="42.1875"
       x="3634.4443"
       y="-1727.3065" />
    <circle
       style="opacity:1;fill:none;fill-opacity:1;fill-rule:nonzero;stroke:#ff0000;stroke-width:0.33218506;stroke-linecap:round;stroke-linejoin:round;stroke-miterlimit:4;stroke-dasharray:none;stroke-dashoffset:0;stroke-opacity:1"
       id="circle5501"
       cx="3623.3162"
       cy="-1706.2128"
       r="3.3772147" />
    <circle
       cy="-1706.2128"
       cx="3723.1931"
       id="circle5503"
       style="opacity:1;fill:none;fill-opacity:1;fill-rule:nonzero;stroke:#ff0000;stroke-width:0.33218503;stroke-linecap:round;stroke-linejoin:round;stroke-miterlimit:4;stroke-dasharray:none;stroke-dashoffset:0;stroke-opacity:1"
       r="3.3772147" />
    <path
       sodipodi:nodetypes="ccccccccccccccccccccccccccccc"
       inkscape:connector-curvature="0"
       d="m 3463.4909,-1848.0396 h 19.0866 v 11.3386 h 18.5197 v -11.3386 h 19.2756 v 11.3386 h 18.5197 v -11.3386 h 19.2755 v 11.3386 h 18.5197 v -11.3386 h 19.0866 v 94.4882 h -19.0866 v -11.3386 h -18.5197 v 11.3386 h -19.2755 v -11.3386 h -18.5197 v 11.3386 h -19.2756 v -11.3386 h -18.5197 v 11.3386 h -19.0866 z"
       id="path5505"
       style="fill:none;stroke:#ff0000" />
    <path
       inkscape:connector-curvature="0"
       d="m 3607.1129,-1730.8742 h 18.7087 v -11.3386 h 19.2756 v 11.3386 h 18.5197 v -11.3386 h 19.2756 v 11.3386 h 18.5196 v -11.3386 h 19.2756 v 11.3386 h 18.7087 v 49.3228 h -18.7087 v 11.3386 h -19.2756 v -11.3386 h -18.5196 v 11.3386 h -19.2756 v -11.3386 h -18.5197 v 11.3386 h -19.2756 v -11.3386 h -18.7087 z"
       id="path5507"
       style="fill:none;stroke:#ff0000" />
    <path
       inkscape:connector-curvature="0"
       d="m 3463.4909,-1730.8742 h 18.7086 v -11.3386 h 19.2756 v 11.3386 h 18.5197 v -11.3386 h 19.2756 v 11.3386 h 18.5197 v -11.3386 h 19.2756 v 11.3386 h 18.7086 v 49.3228 h -18.7086 v 11.3386 h -19.2756 v -11.3386 h -18.5197 v 11.3386 h -19.2756 v -11.3386 h -18.5197 v 11.3386 h -19.2756 v -11.3386 h -18.7086 z"
       id="path5509"
       style="fill:none;stroke:#ff0000" />
    <path
       style="fill:none;stroke:#ff0000"
       id="path5511"
       d="m 3607.8659,-1848.0396 h 19.0866 v 11.3386 h 18.5197 v -11.3386 h 19.2756 v 11.3386 h 18.5197 v -11.3386 h 19.2755 v 11.3386 h 18.5197 v -11.3386 h 19.0866 v 94.4882 h -19.0866 v -11.3386 h -18.5197 v 11.3386 h -19.2755 v -11.3386 h -18.5197 v 11.3386 h -19.2756 v -11.3386 h -18.5197 v 11.3386 h -19.0866 z"
       inkscape:connector-curvature="0"
       sodipodi:nodetypes="ccccccccccccccccccccccccccccc" />
    <circle
       r="8.6921749"
       cy="-1706.2128"
       cx="3517.0652"
       id="circle5513"
       style="opacity:1;fill:none;fill-opacity:1;fill-rule:nonzero;stroke:#ff0000;stroke-width:0.33218506;stroke-linecap:round;stroke-linejoin:round;stroke-miterlimit:4;stroke-dasharray:none;stroke-dashoffset:0;stroke-opacity:1" />
    <g
       transform="translate(13.551179,205.18984)"
       id="g5519">
      <circle
         style="opacity:1;fill:none;fill-opacity:1;fill-rule:nonzero;stroke:#ff0000;stroke-width:0.33218506;stroke-linecap:round;stroke-linejoin:round;stroke-miterlimit:4;stroke-dasharray:none;stroke-dashoffset:0;stroke-opacity:1"
         id="circle5515"
         cx="3623.4177"
         cy="-2005.9854"
         r="3.3772147" />
      <circle
         cy="-2005.9854"
         cx="3697.4951"
         id="circle5517"
         style="opacity:1;fill:none;fill-opacity:1;fill-rule:nonzero;stroke:#ff0000;stroke-width:0.33218503;stroke-linecap:round;stroke-linejoin:round;stroke-miterlimit:4;stroke-dasharray:none;stroke-dashoffset:0;stroke-opacity:1"
         r="3.3772147" />
    </g>
  </g>
  <g
     inkscape:label="construction"
     id="layer2"
     inkscape:groupmode="layer"
     style="display:none">
    <g
       transform="translate(1532.6539,-578.05981)"
       id="g5094">
      <rect
         style="opacity:1;fill:none;fill-opacity:1;fill-rule:nonzero;stroke:#000000;stroke-width:0.33218506;stroke-linecap:round;stroke-linejoin:round;stroke-miterlimit:4;stroke-dasharray:none;stroke-dashoffset:0;stroke-opacity:1"
         id="rect5051"
         width="113.05364"
         height="42.1875"
         x="3072.3704"
         y="634.54669"
         ry="0" />
      <rect
         style="opacity:1;fill:none;fill-opacity:1;fill-rule:nonzero;stroke:#000000;stroke-width:0.33218506;stroke-linecap:round;stroke-linejoin:round;stroke-miterlimit:4;stroke-dasharray:none;stroke-dashoffset:0;stroke-opacity:1"
         id="rect5053"
         width="77.620575"
         height="42.1875"
         x="3090.0869"
         y="634.54669" />
      <circle
         style="opacity:1;fill:none;fill-opacity:1;fill-rule:nonzero;stroke:#000000;stroke-width:0.33218506;stroke-linecap:round;stroke-linejoin:round;stroke-miterlimit:4;stroke-dasharray:none;stroke-dashoffset:0;stroke-opacity:1"
         id="path5055"
         cx="3078.9587"
         cy="655.64044"
         r="3.3772147" />
      <circle
         cy="655.64044"
         cx="3178.8357"
         id="circle5059"
         style="opacity:1;fill:none;fill-opacity:1;fill-rule:nonzero;stroke:#000000;stroke-width:0.33218503;stroke-linecap:round;stroke-linejoin:round;stroke-miterlimit:4;stroke-dasharray:none;stroke-dashoffset:0;stroke-opacity:1"
         r="3.3772147" />
      <circle
         style="opacity:1;fill:none;fill-opacity:1;fill-rule:nonzero;stroke:#000000;stroke-width:0.33218506;stroke-linecap:round;stroke-linejoin:round;stroke-miterlimit:4;stroke-dasharray:none;stroke-dashoffset:0;stroke-opacity:1"
         id="path5069"
         cx="3116.3296"
         cy="655.64044"
         r="8.6921749" />
    </g>
    <text
       id="text5098"
       y="83.523796"
       x="4729.4966"
       style="font-style:normal;font-variant:normal;font-weight:normal;font-stretch:normal;line-height:0%;font-family:'DejaVu Sans';-inkscape-font-specification:'DejaVu Sans';letter-spacing:0px;word-spacing:0px;fill:#000000;fill-opacity:1;stroke:none;stroke-width:0.9375px;stroke-linecap:butt;stroke-linejoin:miter;stroke-opacity:1"
       xml:space="preserve"><tspan
         style="font-size:22.5px;line-height:23.4375;stroke-width:0.9375px"
         y="83.523796"
         x="4729.4966"
         id="tspan5096"
         sodipodi:role="line">Servo</tspan></text>
  </g>
</svg>
