<?xml version="1.0" encoding="UTF-8" standalone="no"?>
<!-- Created with Inkscape (http://www.inkscape.org/) -->

<svg
   xmlns:dc="http://purl.org/dc/elements/1.1/"
   xmlns:cc="http://creativecommons.org/ns#"
   xmlns:rdf="http://www.w3.org/1999/02/22-rdf-syntax-ns#"
   xmlns:svg="http://www.w3.org/2000/svg"
   xmlns="http://www.w3.org/2000/svg"
   xmlns:sodipodi="http://sodipodi.sourceforge.net/DTD/sodipodi-0.dtd"
   xmlns:inkscape="http://www.inkscape.org/namespaces/inkscape"
   width="1280mm"
   height="880mm"
   viewBox="0 0 4535.4331 3118.1103"
   id="svg4240"
   version="1.1"
   inkscape:version="0.92.1 r15371"
   sodipodi:docname="case.svg">
  <sodipodi:namedview
     id="base"
     pagecolor="#ffffff"
     bordercolor="#666666"
     borderopacity="1.0"
     inkscape:pageopacity="0.0"
     inkscape:pageshadow="2"
     inkscape:zoom="0.61044922"
     inkscape:cx="4139.6311"
     inkscape:cy="2838.9639"
     inkscape:document-units="mm"
     inkscape:current-layer="layer1"
     showgrid="false"
     inkscape:window-width="1920"
     inkscape:window-height="1126"
     inkscape:window-x="-2"
     inkscape:window-y="-3"
     inkscape:window-maximized="1"
     inkscape:snap-global="false" />
  <title
     id="title4788">Découpage Laser</title>
  <defs
     id="defs4242" />
  <metadata
     id="metadata4245">
    <rdf:RDF>
      <cc:Work
         rdf:about="">
        <dc:format>image/svg+xml</dc:format>
        <dc:type
           rdf:resource="http://purl.org/dc/dcmitype/StillImage" />
        <dc:title>Découpage Laser</dc:title>
        <dc:creator>
          <cc:Agent>
            <dc:title />
          </cc:Agent>
        </dc:creator>
        <dc:publisher>
          <cc:Agent>
            <dc:title>Fablab Lannion</dc:title>
          </cc:Agent>
        </dc:publisher>
        <dc:source>http://fablab-lannion.org:8080/wiki/index.php?title=Chaine_logiciel_pour_d%C3%A9coupeuse_laser#Inkscape</dc:source>
        <dc:contributor>
          <cc:Agent>
            <dc:title>JJL</dc:title>
          </cc:Agent>
        </dc:contributor>
        <cc:license
           rdf:resource="http://creativecommons.org/licenses/by-sa/3.0/" />
      </cc:Work>
      <cc:License
         rdf:about="http://creativecommons.org/licenses/by-sa/3.0/">
        <cc:permits
           rdf:resource="http://creativecommons.org/ns#Reproduction" />
        <cc:permits
           rdf:resource="http://creativecommons.org/ns#Distribution" />
        <cc:requires
           rdf:resource="http://creativecommons.org/ns#Notice" />
        <cc:requires
           rdf:resource="http://creativecommons.org/ns#Attribution" />
        <cc:permits
           rdf:resource="http://creativecommons.org/ns#DerivativeWorks" />
        <cc:requires
           rdf:resource="http://creativecommons.org/ns#ShareAlike" />
      </cc:License>
    </rdf:RDF>
  </metadata>
  <g
     inkscape:label="Calque 1"
     inkscape:groupmode="layer"
     id="layer1"
     transform="translate(0,2065.7481)">
    <path
       style="fill:none;stroke:#ff0000"
       id="box_bottom"
       d="m 4525.4337,-2052.9706 v 39.895 h -11.3386 v 39.895 h 11.3386 v 39.895 h -11.3386 v 39.8951 h 11.3386 v 39.895 h -11.3386 v 39.895 h 11.3386 v 39.895 h -11.3386 v 39.895 h 11.3386 v 39.895 h -42.1563 v -11.3386 h -42.1562 v 11.3386 h -42.1563 v -11.3386 h -42.1563 v 11.3386 h -42.1562 v -11.3386 h -42.1563 v 11.3386 h -42.1563 v -11.3386 h -42.1562 v 11.3386 h -42.1563 v -11.3386 h -42.1563 v 11.3386 h -42.1563 v -11.3386 h -42.1562 v 11.3386 h -42.1563 v -39.895 h 11.3386 v -39.895 h -11.3386 v -39.895 h 11.3386 v -39.895 h -11.3386 v -39.895 h 11.3386 v -39.8951 h -11.3386 v -39.895 h 11.3386 v -39.895 h -11.3386 v -39.895 h 42.1563 v 11.3386 h 42.1562 v -11.3386 h 42.1563 v 11.3386 h 42.1563 v -11.3386 h 42.1563 v 11.3386 h 42.1562 v -11.3386 h 42.1563 v 11.3386 h 42.1563 v -11.3386 h 42.1562 v 11.3386 h 42.1563 v -11.3386 h 42.1563 v 11.3386 h 42.1562 v -11.3386 z"
       inkscape:connector-curvature="0" />
    <path
       style="fill:none;stroke:#ff0000"
       id="box_top"
       d="m 4525.4337,-1688.7199 v 39.895 h -11.3386 v 39.895 h 11.3386 v 39.895 h -11.3386 v 39.8951 h 11.3386 v 39.895 h -11.3386 v 39.895 h 11.3386 v 39.895 h -11.3386 v 39.895 h 11.3386 v 39.895 h -42.1563 v -11.3386 h -42.1562 v 11.3386 h -42.1563 v -11.3386 h -42.1563 v 11.3386 h -42.1562 v -11.3386 h -42.1563 v 11.3386 h -42.1563 v -11.3386 h -42.1562 v 11.3386 h -42.1563 v -11.3386 h -42.1563 v 11.3386 h -42.1563 v -11.3386 h -42.1562 v 11.3386 h -42.1563 v -39.895 h 11.3386 v -39.895 h -11.3386 v -39.895 h 11.3386 v -39.895 h -11.3386 v -39.895 h 11.3386 v -39.8951 h -11.3386 v -39.895 h 11.3386 v -39.895 h -11.3386 v -39.895 h 42.1563 v 11.3386 h 42.1562 v -11.3386 h 42.1563 v 11.3386 h 42.1563 v -11.3386 h 42.1563 v 11.3386 h 42.1562 v -11.3386 h 42.1563 v 11.3386 h 42.1563 v -11.3386 h 42.1562 v 11.3386 h 42.1563 v -11.3386 h 42.1563 v 11.3386 h 42.1562 v -11.3386 z"
       inkscape:connector-curvature="0" />
    <path
       style="fill:none;stroke:#ff0000"
       id="box_font"
       d="m 3961.2407,-1688.7199 v 39.895 h 11.3386 v 39.895 h -11.3386 v 39.895 h 11.3386 v 39.8951 h -11.3386 v 39.895 h 11.3386 v 39.895 h -11.3386 v 39.895 h 11.3386 v 39.895 h -11.3386 v 39.895 h -55.433 v -11.3386 h -55.4331 v 11.3386 h -55.4331 v -39.895 h -11.3386 v -39.895 h 11.3386 v -39.895 h -11.3386 v -39.895 h 11.3386 v -39.895 h -11.3386 v -39.8951 h 11.3386 v -39.895 h -11.3386 v -39.895 h 11.3386 v -39.895 h 55.4331 v 11.3386 h 55.4331 v -11.3386 z"
       inkscape:connector-curvature="0" />
    <path
       style="fill:none;stroke:#ff0000"
       id="box_back"
       d="m 3961.2407,-2052.9706 v 39.895 h 11.3386 v 39.895 h -11.3386 v 39.895 h 11.3386 v 39.8951 h -11.3386 v 39.895 h 11.3386 v 39.895 h -11.3386 v 39.895 h 11.3386 v 39.895 h -11.3386 v 39.895 h -55.433 v -11.3386 h -55.4331 v 11.3386 h -55.4331 v -39.895 h -11.3386 v -39.895 h 11.3386 v -39.895 h -11.3386 v -39.895 h 11.3386 v -39.895 h -11.3386 v -39.8951 h 11.3386 v -39.895 h -11.3386 v -39.895 h 11.3386 v -39.895 h 55.4331 v 11.3386 h 55.4331 v -11.3386 z"
       inkscape:connector-curvature="0" />
    <path
       style="fill:none;stroke:#ff0000"
       id="box_left_side"
       d="m 3570.3365,-2044.8898 v 30.8176 h 11.3386 v 42.1563 h -11.3386 v 42.1563 h 11.3386 v 42.1563 h -11.3386 v 42.1562 h 11.3386 v 42.1563 h -11.3386 v 42.1563 h 11.3386 v 42.1562 h -11.3386 v 42.1563 h 11.3386 v 42.1563 h -11.3386 v 42.1562 h 11.3386 v 42.1563 h -11.3386 v 30.8177 h -55.4331 v 11.3386 h -55.4331 v -11.3386 h -55.433 v -30.8177 h -11.3386 v -42.1563 h 11.3386 v -42.1562 h -11.3386 v -42.1563 h 11.3386 v -42.1563 h -11.3386 v -42.1562 h 11.3386 v -42.1563 h -11.3386 v -42.1563 h 11.3386 v -42.1562 h -11.3386 v -42.1563 h 11.3386 v -42.1563 h -11.3386 v -42.1563 h 11.3386 v -30.8176 h 55.433 v -11.3386 h 55.4331 v 11.3386 z"
       inkscape:connector-curvature="0" />
    <path
       style="fill:none;stroke:#ff0000"
       id="box_right_side"
       d="m 3768.5274,-2044.8898 v 30.8177 h 11.3386 v 42.1562 h -11.3386 v 42.1563 h 11.3386 v 42.1563 h -11.3386 v 42.1562 h 11.3386 v 42.1563 h -11.3386 v 42.1563 h 11.3386 v 42.1563 h -11.3386 v 42.1562 h 11.3386 v 42.1563 h -11.3386 v 42.1563 h 11.3386 v 42.1562 h -11.3386 v 30.8177 h -55.4331 v 11.3386 h -55.4331 v -11.3386 h -55.433 v -30.8177 h -11.3386 v -42.1562 h 11.3386 v -42.1563 h -11.3386 v -42.1563 h 11.3386 v -42.1562 h -11.3386 v -42.1563 h 11.3386 v -42.1563 h -11.3386 v -42.1563 h 11.3386 v -42.1562 h -11.3386 v -42.1563 h 11.3386 v -42.1563 h -11.3386 v -42.1562 h 11.3386 v -30.8177 h 55.433 v -11.3386 h 55.4331 v 11.3386 z"
       inkscape:connector-curvature="0" />
    <path
       d="m 4446.2765,-1953.7264 c 0,-2.9542 -2.3946,-5.3481 -5.3481,-5.3481 -2.9534,-7e-4 -5.348,2.3939 -5.348,5.3474 0,2.9541 2.3946,5.3481 5.348,5.3481 2.9535,0 5.3481,-2.394 5.3481,-5.3474 z"
       style="fill:none;stroke:#ff0000;stroke-width:0.35433072;stroke-linecap:butt;stroke-linejoin:bevel;stroke-miterlimit:22.92559052;stroke-dasharray:none;stroke-opacity:1"
       id="path54"
       inkscape:connector-curvature="0" />
    <path
       d="m 4453.8399,-1783.1334 c 0,-2.954 -2.3939,-5.3481 -5.3474,-5.3481 -2.9539,-5e-4 -5.3479,2.3941 -5.3479,5.3476 -6e-4,2.9539 2.394,5.3479 5.3474,5.3479 2.954,0 5.3479,-2.394 5.3479,-5.3474 z"
       style="fill:none;stroke:#ff0000;stroke-width:0.35433072;stroke-linecap:butt;stroke-linejoin:bevel;stroke-miterlimit:22.92559052;stroke-dasharray:none;stroke-opacity:1"
       id="path56"
       inkscape:connector-curvature="0" />
    <path
       d="m 4275.8528,-1783.1327 c 7e-4,-2.9542 -2.3932,-5.3482 -5.3474,-5.3482 -2.9534,-6e-4 -5.3474,2.394 -5.3474,5.3475 -6e-4,2.9542 2.394,5.348 5.3474,5.348 2.9542,0 5.3474,-2.3938 5.3474,-5.3473 z"
       style="fill:none;stroke:#ff0000;stroke-width:0.35433072;stroke-linecap:butt;stroke-linejoin:bevel;stroke-miterlimit:22.92559052;stroke-dasharray:none;stroke-opacity:1"
       id="path58"
       inkscape:connector-curvature="0" />
    <path
       d="m 4275.8515,-1961.4005 c 7e-4,-2.9541 -2.394,-5.348 -5.3474,-5.348 -2.9535,-7e-4 -5.3479,2.3939 -5.3479,5.3474 0,2.9541 2.3944,5.3481 5.3479,5.3481 2.9534,0 5.3474,-2.394 5.3474,-5.3475 z"
       style="fill:none;stroke:#ff0000;stroke-width:0.35433072;stroke-linecap:butt;stroke-linejoin:bevel;stroke-miterlimit:22.92559052;stroke-dasharray:none;stroke-opacity:1"
       id="path60"
       inkscape:connector-curvature="0" />
    <path
       d="m 4367.8999,-2009.7975 -0.6159,-0.5771 c -2.3227,-2.3253 -4.8577,-3.0568 -8.1443,-3.0589 -3.286,0 -6.4393,1.3021 -8.7639,3.6244 0,0 -128.5907,128.4315 -128.5907,128.4315 -2.3255,2.3227 -3.6328,5.4736 -3.6353,8.7601 0,3.2865 1.302,6.4386 3.6243,8.7646 0,0 128.4315,128.5902 128.4315,128.5902 4.8369,4.8428 12.2259,5.2807 17.0675,0.4442 l 0.4566,-0.4333 c 0,0 128.5907,-128.4316 128.5907,-128.4316 2.3253,-2.3227 3.6333,-5.4736 3.6353,-8.7601 0,-3.2866 -1.302,-6.4386 -3.625,-8.7639 0,0 -128.4308,-128.5901 -128.4308,-128.5901 z"
       style="fill:none;stroke:#ff0000;stroke-width:0.35433072;stroke-linecap:butt;stroke-linejoin:bevel;stroke-miterlimit:22.92559052;stroke-dasharray:none;stroke-opacity:1"
       id="path84"
       inkscape:connector-curvature="0" />
    <path
       inkscape:connector-curvature="0"
       id="path5487"
       style="fill:none;stroke:#000000;stroke-width:0.642326"
       d="m 3829.4305,-1554.3576 13.8789,-7.9972 c -0.3777,0.013 -0.7516,0.031 -1.1216,0.053 -0.3162,0.012 -0.6517,0.026 -1.0061,0.034 -0.347,0.012 -0.6555,0.021 -0.9255,0.021 h -10.8257 v -1.8031 h 16.2965 v 2.3546 l -13.9717,8.0817 c 0.3778,-0.021 0.7556,-0.042 1.1337,-0.063 0.3235,-0.013 0.6744,-0.028 1.0522,-0.042 0.3857,-0.013 0.7517,-0.022 1.099,-0.022 h 10.6868 v 1.8243 h -16.2965 v -2.4395 z m 8.2234,-12.5047 c -1.2723,0 -2.4288,-0.1696 -3.4699,-0.5088 -1.0408,-0.3324 -1.9312,-0.817 -2.6715,-1.4535 -0.7402,-0.6363 -1.3109,-1.4142 -1.7118,-2.3333 -0.401,-0.919 -0.6016,-1.9619 -0.6016,-3.1286 0,-1.2306 0.2083,-2.3089 0.6246,-3.235 0.4241,-0.9262 1.0102,-1.6971 1.7579,-2.3123 0.7558,-0.6151 1.6503,-1.0781 2.6836,-1.3894 1.0331,-0.3112 2.1627,-0.4667 3.3887,-0.4667 1.2724,0 2.421,0.1626 3.4466,0.4879 1.0256,0.3254 1.8969,0.8026 2.614,1.4322 0.7247,0.6292 1.28,1.4032 1.6654,2.3224 0.3933,0.9263 0.5898,1.987 0.5898,3.182 0,1.188 -0.1965,2.2413 -0.5898,3.1608 -0.3932,0.9261 -0.9522,1.7004 -1.677,2.3227 -0.7248,0.6292 -1.5999,1.1063 -2.6255,1.4318 -1.0256,0.3252 -2.1666,0.4878 -3.4235,0.4878 z m 0,-2.0681 c 0.9792,0 1.8699,-0.1168 2.6715,-0.35 0.8021,-0.2264 1.4883,-0.5658 2.059,-1.0185 0.5706,-0.4454 1.0101,-1.0004 1.3185,-1.6652 0.3085,-0.6643 0.4625,-1.4317 0.4625,-2.3015 0,-0.8908 -0.154,-1.6721 -0.4625,-2.3438 -0.3084,-0.6717 -0.7479,-1.2338 -1.3185,-1.6865 -0.5707,-0.4457 -1.2569,-0.7814 -2.059,-1.0075 -0.8016,-0.2194 -1.6923,-0.329 -2.6715,-0.329 -0.9792,0 -1.8775,0.1132 -2.6947,0.3396 -0.8098,0.2334 -1.5115,0.5725 -2.105,1.0181 -0.5861,0.4526 -1.0449,1.0113 -1.3764,1.6759 -0.324,0.6717 -0.486,1.4424 -0.486,2.3123 0,0.9332 0.1659,1.7357 0.4975,2.4074 0.3315,0.679 0.7901,1.2342 1.3762,1.6652 0.5938,0.4385 1.2993,0.7602 2.1166,0.9652 0.8175,0.2123 1.7081,0.3183 2.6718,0.3183 z m -8.2234,-17.808 h 16.2965 v 2.0257 h -16.2965 z m 0,-6.2259 13.8789,-7.9971 c -0.3777,0.013 -0.7516,0.031 -1.1216,0.053 -0.3162,0.013 -0.6517,0.026 -1.0061,0.034 -0.347,0.012 -0.6555,0.021 -0.9255,0.021 h -10.8257 v -1.8033 h 16.2965 v 2.3549 l -13.9717,8.0819 c 0.3778,-0.022 0.7556,-0.042 1.1337,-0.064 0.3235,-0.012 0.6744,-0.028 1.0522,-0.043 0.3857,-0.013 0.7517,-0.022 1.099,-0.022 h 10.6868 v 1.8244 h -16.2965 v -2.4396 z m 0,-15.6972 13.8789,-7.9973 c -0.3777,0.013 -0.7516,0.031 -1.1216,0.054 -0.3162,0.012 -0.6517,0.025 -1.0061,0.034 -0.347,0.012 -0.6555,0.021 -0.9255,0.021 h -10.8257 v -1.8033 h 16.2965 v 2.3545 l -13.9717,8.0821 c 0.3778,-0.022 0.7556,-0.043 1.1337,-0.064 0.3235,-0.012 0.6744,-0.028 1.0522,-0.043 0.3857,-0.012 0.7517,-0.021 1.099,-0.021 h 10.6868 v 1.8242 h -16.2965 v -2.4395 z m 0,-13.6079 4.7649,-1.7075 v -6.8094 l -4.7649,-1.7181 v -2.1002 l 16.2965,6.0987 v 2.3015 l -16.2965,6.0031 z m 11.8666,-4.2319 c 0.3084,-0.1131 0.6208,-0.2228 0.9368,-0.3288 0.3164,-0.099 0.6016,-0.1875 0.8559,-0.2651 0.2623,-0.078 0.4782,-0.1449 0.6478,-0.2016 0.1772,-0.048 0.2853,-0.078 0.3238,-0.085 -0.037,-0.012 -0.1465,-0.046 -0.3238,-0.096 -0.1774,-0.05 -0.3971,-0.1169 -0.6593,-0.2016 -0.2621,-0.078 -0.5514,-0.1695 -0.8674,-0.2758 -0.3161,-0.1002 -0.6285,-0.2016 -0.9368,-0.3076 l -5.3551,-1.9091 v 5.5895 l 5.3781,-1.9196 z m -11.8666,-18.4548 h 16.2965 v 2.0256 h -14.492 v 7.5516 h -1.8045 z m 95.0378,41.6914 -0.024,-9.1337 -50.8742,-17.5211 v 7.9037 l 12.0292,4.1685 0.044,18.7789 -30.464,10.2875 -0.016,10.0401 69.2975,-24.5239 z m -11.7872,-5.1682 -19.5684,6.7776 -0.034,-13.5278 19.6011,6.7502 z m 12.8993,32.8227 -32.577,0.038 0.016,15.4121 c 0.144,14.4242 15.2158,12.7562 16.7012,4.8719 3.3656,7.0998 15.719,5.3706 15.8592,-2.8397 z m -5.4642,15.0713 c -0.016,4.7556 -8.1216,4.7995 -8.1497,0 v -8.6946 h 8.144 z m -13.1686,-8.6671 v 9.6721 c -0.2849,5.1848 -8.1652,4.8649 -8.5678,0 v -9.7053 z m 32.8302,-84.0446 c 0,-3.5088 -2.8517,-6.3553 -6.367,-6.3553 h -110.6394 c -3.5148,0 -6.3669,2.8465 -6.3669,6.3553 v 110.6631 c 0,3.5086 2.8521,6.355 6.3669,6.355 h 110.6394 c 3.5153,0 6.367,-2.8464 6.367,-6.355 z m -1.4117,0 v 110.6631 c 0,2.7521 -2.1979,4.9457 -4.9553,4.9457 h -110.6394 c -2.7571,0 -4.9552,-2.1936 -4.9552,-4.9457 v -110.6631 c 0,-2.7525 2.1981,-4.9462 4.9552,-4.9462 h 110.6394 c 2.7574,0 4.9553,2.1937 4.9553,4.9462 z m -50.6131,77.7946 -32.5771,0.038 0.016,15.4117 c 0.1442,14.4243 15.216,12.7564 16.7014,4.8718 3.3658,7.1001 15.7192,5.3708 15.8592,-2.8397 z m -5.4642,15.071 c -0.017,4.7559 -8.1218,4.7998 -8.1499,0 v -8.6943 h 8.1443 z m -13.1683,-8.6669 v 9.6724 c -0.2856,5.1845 -8.1657,4.8649 -8.568,0 v -9.7053 z m 56.0198,-76.5193 -0.032,21.8284 -5.5816,0.017 0.031,-15.4887 -8.3802,-0.017 -0.016,12.9309 h -5.1254 v -12.9152 h -13.4901 v -6.3556 z m -37.4038,-0.016 v 6.2772 h -26.9799 v 16.6343 h -5.55 v -22.8958 z"
       sodipodi:nodetypes="ccccscccccccscccccscccscccscccscccsscccscccscccscccscccccccccscccccccscccccccccscccccccscccccccccccccccccccccccccccccccccccccccccccccccccccccccccccccccccsssssssssssssssssscccccccccccccccccccccccccccccccccc" />
    <g
       inkscape:label="Hershey Text"
       transform="rotate(90,2846.5452,838.83256)"
       id="g6607">
      <path
         inkscape:connector-curvature="0"
         d="M -5,-12 V 9 m 0,-10 3,-3 2,-1 h 3 l 2,1 1,3 V 9"
         style="fill:none;stroke:#000000"
         transform="translate(9)"
         id="path6553" />
      <path
         inkscape:connector-curvature="0"
         d="M 0,-12 V 5 L 1,8 3,9 H 5 M -3,-5 h 7"
         style="fill:none;stroke:#000000"
         transform="translate(24)"
         id="path6555" />
      <path
         inkscape:connector-curvature="0"
         d="M 0,-12 V 5 L 1,8 3,9 H 5 M -3,-5 h 7"
         style="fill:none;stroke:#000000"
         transform="translate(36)"
         id="path6557" />
      <path
         inkscape:connector-curvature="0"
         d="m -6,-5 v 21 m 0,-18 2,-2 2,-1 h 3 l 2,1 2,2 1,3 V 3 L 5,6 3,8 1,9 H -2 L -4,8 -6,6"
         style="fill:none;stroke:#000000"
         transform="translate(53)"
         id="path6559" />
      <path
         inkscape:connector-curvature="0"
         d="m 0,-3 -1,1 1,1 1,-1 -1,-1 M 0,4 -1,5 0,6 1,5 0,4"
         style="fill:none;stroke:#000000"
         transform="translate(66)"
         id="path6561" />
      <path
         inkscape:connector-curvature="0"
         d="M 9,-16 -9,16"
         style="fill:none;stroke:#000000"
         transform="translate(81)"
         id="path6563" />
      <path
         inkscape:connector-curvature="0"
         d="M 9,-16 -9,16"
         style="fill:none;stroke:#000000"
         transform="translate(103)"
         id="path6565" />
      <path
         inkscape:connector-curvature="0"
         d="M -5,-5 V 5 l 1,3 2,1 H 1 L 3,8 6,5 M 6,-5 V 9"
         style="fill:none;stroke:#000000"
         transform="translate(123)"
         id="path6567" />
      <path
         inkscape:connector-curvature="0"
         d="M 0,4 -1,5 0,6 1,5 0,4"
         style="fill:none;stroke:#000000"
         transform="translate(137)"
         id="path6569" />
      <path
         inkscape:connector-curvature="0"
         d="M 6,-12 V 9 M 6,-2 4,-4 2,-5 h -3 l -2,1 -2,2 -1,3 v 2 l 1,3 2,2 2,1 H 2 L 4,8 6,6"
         style="fill:none;stroke:#000000"
         transform="translate(150)"
         id="path6571" />
      <path
         inkscape:connector-curvature="0"
         d="m -1,-12 1,1 1,-1 -1,-1 -1,1 m 1,7 V 9"
         style="fill:none;stroke:#000000"
         transform="translate(164)"
         id="path6573" />
      <path
         inkscape:connector-curvature="0"
         d="M -5,-5 V 9 m 0,-10 3,-3 2,-1 h 3 l 2,1 1,3 V 9"
         style="fill:none;stroke:#000000"
         transform="translate(177)"
         id="path6575" />
      <path
         inkscape:connector-curvature="0"
         d="M 6,-5 V 9 M 6,-2 4,-4 2,-5 h -3 l -2,1 -2,2 -1,3 v 2 l 1,3 2,2 2,1 H 2 L 4,8 6,6"
         style="fill:none;stroke:#000000"
         transform="translate(196)"
         id="path6577" />
      <path
         inkscape:connector-curvature="0"
         d="M 6,-2 5,-4 2,-5 h -3 l -3,1 -1,2 1,2 2,1 5,1 2,1 1,2 V 6 L 5,8 2,9 H -1 L -4,8 -5,6"
         style="fill:none;stroke:#000000"
         transform="translate(214)"
         id="path6579" />
      <path
         inkscape:connector-curvature="0"
         d="M -5,-12 V 9 M 5,-5 -5,5 m 4,-4 7,8"
         style="fill:none;stroke:#000000"
         transform="translate(232)"
         id="path6581" />
      <path
         inkscape:connector-curvature="0"
         d="M 0,4 -1,5 0,6 1,5 0,4"
         style="fill:none;stroke:#000000"
         transform="translate(244)"
         id="path6583" />
      <path
         inkscape:connector-curvature="0"
         d="M -6,1 H 6 V -1 L 5,-3 4,-4 2,-5 h -3 l -2,1 -2,2 -1,3 v 2 l 1,3 2,2 2,1 H 2 L 4,8 6,6"
         style="fill:none;stroke:#000000"
         transform="translate(257)"
         id="path6585" />
      <path
         inkscape:connector-curvature="0"
         d="M -5,-5 V 5 l 1,3 2,1 H 1 L 3,8 6,5 M 6,-5 V 9"
         style="fill:none;stroke:#000000"
         transform="translate(275)"
         id="path6587" />
      <path
         inkscape:connector-curvature="0"
         d="M 9,-16 -9,16"
         style="fill:none;stroke:#000000"
         transform="translate(296)"
         id="path6589" />
      <path
         inkscape:connector-curvature="0"
         d="M -3,-5 V 9 m 0,-8 1,-3 2,-2 2,-1 h 3"
         style="fill:none;stroke:#000000"
         transform="translate(314)"
         id="path6591" />
      <path
         inkscape:connector-curvature="0"
         d="m -1,-5 -2,1 -2,2 -1,3 v 2 l 1,3 2,2 2,1 H 2 L 4,8 6,6 7,3 V 1 L 6,-2 4,-4 2,-5 h -3"
         style="fill:none;stroke:#000000"
         transform="translate(329)"
         id="path6593" />
      <path
         inkscape:connector-curvature="0"
         d="M -6,-12 V 9 m 0,-11 2,-2 2,-1 h 3 l 2,1 2,2 1,3 V 3 L 5,6 3,8 1,9 H -2 L -4,8 -6,6"
         style="fill:none;stroke:#000000"
         transform="translate(349)"
         id="path6595" />
      <path
         inkscape:connector-curvature="0"
         d="m -1,-5 -2,1 -2,2 -1,3 v 2 l 1,3 2,2 2,1 H 2 L 4,8 6,6 7,3 V 1 L 6,-2 4,-4 2,-5 h -3"
         style="fill:none;stroke:#000000"
         transform="translate(367)"
         id="path6597" />
      <path
         inkscape:connector-curvature="0"
         d="M 0,-12 V 5 L 1,8 3,9 H 5 M -3,-5 h 7"
         style="fill:none;stroke:#000000"
         transform="translate(382)"
         id="path6599" />
      <path
         inkscape:connector-curvature="0"
         d="M 6,-5 V 9 M 6,-2 4,-4 2,-5 h -3 l -2,1 -2,2 -1,3 v 2 l 1,3 2,2 2,1 H 2 L 4,8 6,6"
         style="fill:none;stroke:#000000"
         transform="translate(398)"
         id="path6601" />
      <path
         inkscape:connector-curvature="0"
         d="M -3,-5 V 9 m 0,-8 1,-3 2,-2 2,-1 h 3"
         style="fill:none;stroke:#000000"
         transform="translate(415)"
         id="path6603" />
      <path
         inkscape:connector-curvature="0"
         d="M -11,-5 V 9 m 0,-10 3,-3 2,-1 h 3 l 2,1 1,3 V 9 M 0,-1 3,-4 5,-5 h 3 l 2,1 1,3 V 9"
         style="fill:none;stroke:#000000"
         transform="translate(436)"
         id="path6605" />
    </g>
    <g
       id="g6749"
       transform="translate(4118.9179,-1633.5527)"
       inkscape:label="Hershey Text">
      <path
         id="path6721"
         transform="translate(10)"
         style="fill:none;stroke:#000000"
         d="M -6,-12 V 9 m 0,-11 2,-2 2,-1 h 3 l 2,1 2,2 1,3 V 3 L 5,6 3,8 1,9 H -2 L -4,8 -6,6"
         inkscape:connector-curvature="0" />
      <path
         id="path6723"
         transform="translate(28)"
         style="fill:none;stroke:#000000"
         d="M 6,-5 V 9 M 6,-2 4,-4 2,-5 h -3 l -2,1 -2,2 -1,3 v 2 l 1,3 2,2 2,1 H 2 L 4,8 6,6"
         inkscape:connector-curvature="0" />
      <path
         id="path6725"
         transform="translate(46)"
         style="fill:none;stroke:#000000"
         d="M 6,-2 5,-4 2,-5 h -3 l -3,1 -1,2 1,2 2,1 5,1 2,1 1,2 V 6 L 5,8 2,9 H -1 L -4,8 -5,6"
         inkscape:connector-curvature="0" />
      <path
         id="path6727"
         transform="translate(64)"
         style="fill:none;stroke:#000000"
         d="M -6,1 H 6 V -1 L 5,-3 4,-4 2,-5 h -3 l -2,1 -2,2 -1,3 v 2 l 1,3 2,2 2,1 H 2 L 4,8 6,6"
         inkscape:connector-curvature="0" />
      <path
         id="path6729"
         transform="translate(82)"
         style="fill:none;stroke:#000000"
         d="M 6,-12 V 9 M 6,-2 4,-4 2,-5 h -3 l -2,1 -2,2 -1,3 v 2 l 1,3 2,2 2,1 H 2 L 4,8 6,6"
         inkscape:connector-curvature="0" />
      <path
         id="path6731"
         transform="translate(100)"
         style="fill:none;stroke:#000000"
         d=""
         inkscape:connector-curvature="0" />
      <path
         id="path6733"
         transform="translate(117)"
         style="fill:none;stroke:#000000"
         d="m -1,-5 -2,1 -2,2 -1,3 v 2 l 1,3 2,2 2,1 H 2 L 4,8 6,6 7,3 V 1 L 6,-2 4,-4 2,-5 h -3"
         inkscape:connector-curvature="0" />
      <path
         id="path6735"
         transform="translate(136)"
         style="fill:none;stroke:#000000"
         d="M -5,-5 V 9 m 0,-10 3,-3 2,-1 h 3 l 2,1 1,3 V 9"
         inkscape:connector-curvature="0" />
      <path
         id="path6737"
         transform="translate(154)"
         style="fill:none;stroke:#000000"
         d=""
         inkscape:connector-curvature="0" />
      <path
         id="path6739"
         transform="translate(174)"
         style="fill:none;stroke:#000000"
         d="M -8,-12 V 9 M -8,-12 0,9 M 8,-12 0,9 M 8,-12 V 9"
         inkscape:connector-curvature="0" />
      <path
         id="path6741"
         transform="translate(195)"
         style="fill:none;stroke:#000000"
         d="M -6,1 H 6 V -1 L 5,-3 4,-4 2,-5 h -3 l -2,1 -2,2 -1,3 v 2 l 1,3 2,2 2,1 H 2 L 4,8 6,6"
         inkscape:connector-curvature="0" />
      <path
         id="path6743"
         transform="translate(213)"
         style="fill:none;stroke:#000000"
         d="M 0,-12 -8,9 M 0,-12 8,9 M -5,2 H 5"
         inkscape:connector-curvature="0" />
      <path
         id="path6745"
         transform="translate(229)"
         style="fill:none;stroke:#000000"
         d="M -3,-5 V 9 m 0,-8 1,-3 2,-2 2,-1 h 3"
         inkscape:connector-curvature="0" />
      <path
         id="path6747"
         transform="translate(250)"
         style="fill:none;stroke:#000000"
         d="M -11,-5 V 9 m 0,-10 3,-3 2,-1 h 3 l 2,1 1,3 V 9 M 0,-1 3,-4 5,-5 h 3 l 2,1 1,3 V 9"
         inkscape:connector-curvature="0" />
    </g>
    <g
       id="g7214"
       transform="translate(4017.668,-1593.2911)"
       inkscape:label="Hershey Text">
      <path
         id="path7158"
         transform="translate(5)"
         style="fill:none;stroke:#000000"
         d="M 0,-12 V 5 L 1,8 3,9 H 5 M -3,-5 h 7"
         inkscape:connector-curvature="0" />
      <path
         id="path7160"
         transform="translate(21)"
         style="fill:none;stroke:#000000"
         d="M -5,-12 V 9 m 0,-10 3,-3 2,-1 h 3 l 2,1 1,3 V 9"
         inkscape:connector-curvature="0" />
      <path
         id="path7162"
         transform="translate(35)"
         style="fill:none;stroke:#000000"
         d="m -1,-12 1,1 1,-1 -1,-1 -1,1 m 1,7 V 9"
         inkscape:connector-curvature="0" />
      <path
         id="path7164"
         transform="translate(48)"
         style="fill:none;stroke:#000000"
         d="M -5,-5 V 9 m 0,-10 3,-3 2,-1 h 3 l 2,1 1,3 V 9"
         inkscape:connector-curvature="0" />
      <path
         id="path7166"
         transform="translate(67)"
         style="fill:none;stroke:#000000"
         d="M 6,-5 V 11 L 5,14 4,15 2,16 H -1 L -3,15 M 6,-2 4,-4 2,-5 h -3 l -2,1 -2,2 -1,3 v 2 l 1,3 2,2 2,1 H 2 L 4,8 6,6"
         inkscape:connector-curvature="0" />
      <path
         id="path7168"
         transform="translate(81)"
         style="fill:none;stroke:#000000"
         d="m -1,-12 1,1 1,-1 -1,-1 -1,1 m 1,7 V 9"
         inkscape:connector-curvature="0" />
      <path
         id="path7170"
         transform="translate(93)"
         style="fill:none;stroke:#000000"
         d="M -6,-5 0,9 M 6,-5 0,9"
         inkscape:connector-curvature="0" />
      <path
         id="path7172"
         transform="translate(110)"
         style="fill:none;stroke:#000000"
         d="M -6,1 H 6 V -1 L 5,-3 4,-4 2,-5 h -3 l -2,1 -2,2 -1,3 v 2 l 1,3 2,2 2,1 H 2 L 4,8 6,6"
         inkscape:connector-curvature="0" />
      <path
         id="path7174"
         transform="translate(126)"
         style="fill:none;stroke:#000000"
         d="M -3,-5 V 9 m 0,-8 1,-3 2,-2 2,-1 h 3"
         inkscape:connector-curvature="0" />
      <path
         id="path7176"
         transform="translate(140)"
         style="fill:none;stroke:#000000"
         d="M 6,-2 5,-4 2,-5 h -3 l -3,1 -1,2 1,2 2,1 5,1 2,1 1,2 V 6 L 5,8 2,9 H -1 L -4,8 -5,6"
         inkscape:connector-curvature="0" />
      <path
         id="path7178"
         transform="translate(158)"
         style="fill:none;stroke:#000000"
         d="M -6,1 H 6 V -1 L 5,-3 4,-4 2,-5 h -3 l -2,1 -2,2 -1,3 v 2 l 1,3 2,2 2,1 H 2 L 4,8 6,6"
         inkscape:connector-curvature="0" />
      <path
         id="path7180"
         transform="translate(171)"
         style="fill:none;stroke:#000000"
         d="M 0,4 -1,5 0,6 1,5 0,4"
         inkscape:connector-curvature="0" />
      <path
         id="path7182"
         transform="translate(184)"
         style="fill:none;stroke:#000000"
         d="M 6,-2 4,-4 2,-5 h -3 l -2,1 -2,2 -1,3 v 2 l 1,3 2,2 2,1 H 2 L 4,8 6,6"
         inkscape:connector-curvature="0" />
      <path
         id="path7184"
         transform="translate(202)"
         style="fill:none;stroke:#000000"
         d="m -1,-5 -2,1 -2,2 -1,3 v 2 l 1,3 2,2 2,1 H 2 L 4,8 6,6 7,3 V 1 L 6,-2 4,-4 2,-5 h -3"
         inkscape:connector-curvature="0" />
      <path
         id="path7186"
         transform="translate(227)"
         style="fill:none;stroke:#000000"
         d="M -11,-5 V 9 m 0,-10 3,-3 2,-1 h 3 l 2,1 1,3 V 9 M 0,-1 3,-4 5,-5 h 3 l 2,1 1,3 V 9"
         inkscape:connector-curvature="0" />
      <path
         id="path7188"
         transform="translate(253)"
         style="fill:none;stroke:#000000"
         d="M 9,-16 -9,16"
         inkscape:connector-curvature="0" />
      <path
         id="path7190"
         transform="translate(269)"
         style="fill:none;stroke:#000000"
         d="M 0,-12 V 5 L 1,8 3,9 H 5 M -3,-5 h 7"
         inkscape:connector-curvature="0" />
      <path
         id="path7192"
         transform="translate(285)"
         style="fill:none;stroke:#000000"
         d="M -5,-12 V 9 m 0,-10 3,-3 2,-1 h 3 l 2,1 1,3 V 9"
         inkscape:connector-curvature="0" />
      <path
         id="path7194"
         transform="translate(299)"
         style="fill:none;stroke:#000000"
         d="m -1,-12 1,1 1,-1 -1,-1 -1,1 m 1,7 V 9"
         inkscape:connector-curvature="0" />
      <path
         id="path7196"
         transform="translate(312)"
         style="fill:none;stroke:#000000"
         d="M -5,-5 V 9 m 0,-10 3,-3 2,-1 h 3 l 2,1 1,3 V 9"
         inkscape:connector-curvature="0" />
      <path
         id="path7198"
         transform="translate(331)"
         style="fill:none;stroke:#000000"
         d="M 6,-5 V 11 L 5,14 4,15 2,16 H -1 L -3,15 M 6,-2 4,-4 2,-5 h -3 l -2,1 -2,2 -1,3 v 2 l 1,3 2,2 2,1 H 2 L 4,8 6,6"
         inkscape:connector-curvature="0" />
      <path
         id="path7200"
         transform="translate(345)"
         style="fill:none;stroke:#000000"
         d="m 0,-3 -1,1 1,1 1,-1 -1,-1 M 0,4 -1,5 0,6 1,5 0,4"
         inkscape:connector-curvature="0" />
      <path
         id="path7202"
         transform="translate(359)"
         style="fill:none;stroke:#000000"
         d="M 6,-5 5,-2 3,0 0,1 H -1 L -4,0 -6,-2 -7,-5 v -1 l 1,-3 2,-2 3,-1 h 1 l 3,1 2,2 1,4 V 0 L 5,5 3,8 0,9 H -2 L -5,8 -6,6"
         inkscape:connector-curvature="0" />
      <path
         id="path7204"
         transform="translate(379)"
         style="fill:none;stroke:#000000"
         d="M 6,-5 5,-2 3,0 0,1 H -1 L -4,0 -6,-2 -7,-5 v -1 l 1,-3 2,-2 3,-1 h 1 l 3,1 2,2 1,4 V 0 L 5,5 3,8 0,9 H -2 L -5,8 -6,6"
         inkscape:connector-curvature="0" />
      <path
         id="path7206"
         transform="translate(399)"
         style="fill:none;stroke:#000000"
         d="M -5,-12 H 6 l -6,8 h 3 l 2,1 1,1 1,3 V 3 L 6,6 4,8 1,9 H -2 L -5,8 -6,7 -7,5"
         inkscape:connector-curvature="0" />
      <path
         id="path7208"
         transform="translate(419)"
         style="fill:none;stroke:#000000"
         d="M 7,-12 -3,9 M -7,-12 H 7"
         inkscape:connector-curvature="0" />
      <path
         id="path7210"
         transform="translate(439)"
         style="fill:none;stroke:#000000"
         d="M 5,-12 H -5 l -1,9 1,-1 3,-1 h 3 l 3,1 2,2 1,3 V 3 L 6,6 4,8 1,9 H -2 L -5,8 -6,7 -7,5"
         inkscape:connector-curvature="0" />
      <path
         id="path7212"
         transform="translate(459)"
         style="fill:none;stroke:#000000"
         d="M 6,-5 5,-2 3,0 0,1 H -1 L -4,0 -6,-2 -7,-5 v -1 l 1,-3 2,-2 3,-1 h 1 l 3,1 2,2 1,4 V 0 L 5,5 3,8 0,9 H -2 L -5,8 -6,6"
         inkscape:connector-curvature="0" />
    </g>
    <g
       inkscape:label="Hershey Text"
       transform="translate(4173.9343,-1549.9352)"
       id="g7432">
      <path
         inkscape:connector-curvature="0"
         d="M 8,-7 7,-9 5,-11 3,-12 h -4 l -2,1 -2,2 -1,2 -1,3 v 5 l 1,3 1,2 2,2 2,1 H 3 L 5,8 7,6 8,4"
         style="fill:none;stroke:#000000"
         transform="translate(10)"
         id="path7416" />
      <path
         inkscape:connector-curvature="0"
         d="M 8,-7 7,-9 5,-11 3,-12 h -4 l -2,1 -2,2 -1,2 -1,3 v 5 l 1,3 1,2 2,2 2,1 H 3 L 5,8 7,6 8,4"
         style="fill:none;stroke:#000000"
         transform="translate(31)"
         id="path7418" />
      <path
         inkscape:connector-curvature="0"
         d="m 0,-3 -1,1 1,1 1,-1 -1,-1 M 0,4 -1,5 0,6 1,5 0,4"
         style="fill:none;stroke:#000000"
         transform="translate(46)"
         id="path7420" />
      <path
         inkscape:connector-curvature="0"
         d="M -7,-12 V 9 m 0,-21 h 9 l 3,1 1,1 1,2 v 2 l -1,2 -1,1 -3,1 m -9,0 h 9 l 3,1 1,1 1,2 V 5 L 6,7 5,8 2,9 h -9"
         style="fill:none;stroke:#000000"
         transform="translate(61)"
         id="path7422" />
      <path
         inkscape:connector-curvature="0"
         d="M -8,-12 0,-2 V 9 M 8,-12 0,-2"
         style="fill:none;stroke:#000000"
         transform="translate(80)"
         id="path7424" />
      <path
         inkscape:connector-curvature="0"
         d="M -9,0 H 9"
         style="fill:none;stroke:#000000"
         transform="translate(102)"
         id="path7426" />
      <path
         inkscape:connector-curvature="0"
         d="m 7,-9 -2,-2 -3,-1 h -4 l -3,1 -2,2 v 2 l 1,2 1,1 2,1 6,2 2,1 1,1 1,2 V 6 L 5,8 2,9 H -2 L -5,8 -7,6"
         style="fill:none;stroke:#000000"
         transform="translate(125)"
         id="path7428" />
      <path
         inkscape:connector-curvature="0"
         d="M 0,-12 -8,9 M 0,-12 8,9 M -5,2 H 5"
         style="fill:none;stroke:#000000"
         transform="translate(144)"
         id="path7430" />
    </g>
    <path
       inkscape:connector-curvature="0"
       id="rect7544"
       d="m 3434.612,-2022.9203 52.5758,130.445 52.5758,-130.445 z m -10.0378,34.904 v 250.8878 l 50.5597,-125.4438 z m 125.2254,0 -50.5597,125.4427 50.5597,125.4451 z m -62.6136,155.3456 -52.5759,130.4462 h 105.1535 z"
       style="fill:none;fill-opacity:1;stroke:#ff0000;stroke-width:1.53297877;stroke-miterlimit:4;stroke-dasharray:none;stroke-dashoffset:0;stroke-opacity:1" />
    <g
       transform="rotate(-90,3694.146,-1835.559)"
       id="g8583">
      <path
         id="path8567"
         d="m 3293.6706,-1922.0165 a 3.3661418,3.3661418 0 0 1 -3.3662,3.3662 3.3661418,3.3661418 0 0 1 -3.3661,-3.3662 3.3661418,3.3661418 0 0 1 3.3661,-3.3661 3.3661418,3.3661418 0 0 1 3.3662,3.3661 z"
         style="opacity:1;fill:none;fill-opacity:1;fill-rule:nonzero;stroke:#ff0000;stroke-width:0.35433072;stroke-linecap:round;stroke-linejoin:round;stroke-miterlimit:22.92559052;stroke-dasharray:none;stroke-dashoffset:0;stroke-opacity:1"
         inkscape:connector-curvature="0" />
      <path
         id="circle8571"
         d="m 3347.4936,-1922.0165 a 3.3661418,3.3661418 0 0 1 -3.3662,3.3662 3.3661418,3.3661418 0 0 1 -3.3661,-3.3662 3.3661418,3.3661418 0 0 1 3.3661,-3.3661 3.3661418,3.3661418 0 0 1 3.3662,3.3661 z"
         style="opacity:1;fill:none;fill-opacity:1;fill-rule:nonzero;stroke:#ff0000;stroke-width:0.35433072;stroke-linecap:round;stroke-linejoin:round;stroke-miterlimit:22.92559052;stroke-dasharray:none;stroke-dashoffset:0;stroke-opacity:1"
         inkscape:connector-curvature="0" />
      <path
         id="circle8575"
         d="m 3293.6706,-1778.3707 a 3.3661418,3.3661418 0 0 1 -3.3662,3.3661 3.3661418,3.3661418 0 0 1 -3.3661,-3.3661 3.3661418,3.3661418 0 0 1 3.3661,-3.3662 3.3661418,3.3661418 0 0 1 3.3662,3.3662 z"
         style="opacity:1;fill:none;fill-opacity:1;fill-rule:nonzero;stroke:#ff0000;stroke-width:0.35433072;stroke-linecap:round;stroke-linejoin:round;stroke-miterlimit:22.92559052;stroke-dasharray:none;stroke-dashoffset:0;stroke-opacity:1"
         inkscape:connector-curvature="0" />
      <path
         id="circle8577"
         d="m 3347.4936,-1778.3707 a 3.3661418,3.3661418 0 0 1 -3.3662,3.3661 3.3661418,3.3661418 0 0 1 -3.3661,-3.3661 3.3661418,3.3661418 0 0 1 3.3661,-3.3662 3.3661418,3.3661418 0 0 1 3.3662,3.3662 z"
         style="opacity:1;fill:none;fill-opacity:1;fill-rule:nonzero;stroke:#ff0000;stroke-width:0.35433072;stroke-linecap:round;stroke-linejoin:round;stroke-miterlimit:22.92559052;stroke-dasharray:none;stroke-dashoffset:0;stroke-opacity:1"
         inkscape:connector-curvature="0" />
    </g>
    <path
       style="fill:none;stroke:#ff0000"
       id="path7697"
       d="m 4372.9627,-1344.8817 v -37.7953 h 11.3386 v -37.7952 h -11.3386 v -37.7953 h 11.3386 v -37.7953 h -11.3386 v -37.7953 h 94.4882 v 37.7953 h -11.3386 v 37.7953 h 11.3386 v 37.7953 h -11.3386 v 37.7952 h 11.3386 v 37.7953 z"
       inkscape:connector-curvature="0" />
    <path
       style="fill:none;stroke:#ff0000"
       id="path7699"
       d="m 3585.0232,-1505.8732 h 37.7953 v 11.3386 h 37.7953 v -11.3386 h 37.7953 v 11.3386 h 37.7952 v -11.3386 h 37.7953 v 94.4882 h -37.7953 v -11.3386 h -37.7952 v 11.3386 h -37.7953 v -11.3386 h -37.7953 v 11.3386 h -37.7953 z"
       inkscape:connector-curvature="0" />
    <path
       style="fill:none;stroke:#ff0000"
       id="path7703"
       d="m 3393.3959,-1492.9582 h 37.7953 v -11.3386 h 37.7952 v 11.3386 h 37.7953 v -11.3386 h 37.7953 v 11.3386 h 37.7953 v 23.593 h -37.7953 v 11.3386 h -37.7953 v -11.3386 h -37.7953 v 11.3386 h -37.7952 v -11.3386 h -37.7953 z"
       inkscape:connector-curvature="0"
       sodipodi:nodetypes="ccccccccccccccccccccc" />
    <rect
       style="fill:none;fill-opacity:1;stroke:#ff0000;stroke-width:2.01050806;stroke-miterlimit:4;stroke-dasharray:none;stroke-dashoffset:0;stroke-opacity:1"
       id="rect7831"
       width="51.139099"
       height="125.83379"
       x="3428.3877"
       y="-1676.543" />
    <g
       transform="rotate(90,4065.8104,-1747.3331)"
       id="g4823">
      <g
         id="g4797"
         transform="translate(92.356806)">
        <path
           inkscape:connector-curvature="0"
           transform="scale(-1)"
           style="display:inline;opacity:1;fill:none;fill-opacity:1;fill-rule:nonzero;stroke:#ff0000;stroke-width:0.33218503;stroke-linecap:round;stroke-linejoin:round;stroke-miterlimit:4;stroke-dasharray:none;stroke-dashoffset:0;stroke-opacity:1"
           d="m -3897.2552,1709.4617 a 5.1488676,5.1488676 0 0 1 -5.1489,5.1488 5.1488676,5.1488676 0 0 1 -5.1488,-5.1488 5.1488676,5.1488676 0 0 1 5.1488,-5.1489 5.1488676,5.1488676 0 0 1 5.1489,5.1489 z"
           id="path4551-1" />
        <path
           inkscape:connector-curvature="0"
           transform="scale(-1)"
           style="display:inline;opacity:1;fill:none;fill-opacity:1;fill-rule:nonzero;stroke:#ff0000;stroke-width:0.33218503;stroke-linecap:round;stroke-linejoin:round;stroke-miterlimit:4;stroke-dasharray:none;stroke-dashoffset:0;stroke-opacity:1"
           d="m -3969.5389,1709.4617 a 5.1488676,5.1488676 0 0 1 -5.1488,5.1488 5.1488676,5.1488676 0 0 1 -5.1489,-5.1488 5.1488676,5.1488676 0 0 1 5.1489,-5.1489 5.1488676,5.1488676 0 0 1 5.1488,5.1489 z"
           id="circle4569-0" />
        <path
           inkscape:connector-curvature="0"
           transform="scale(-1)"
           style="display:inline;opacity:1;fill:none;fill-opacity:1;fill-rule:nonzero;stroke:#ff0000;stroke-width:0.33218503;stroke-linecap:round;stroke-linejoin:round;stroke-miterlimit:4;stroke-dasharray:none;stroke-dashoffset:0;stroke-opacity:1"
           d="m -3897.2552,1802.2963 a 5.1488676,5.1488676 0 0 1 -5.1489,5.1488 5.1488676,5.1488676 0 0 1 -5.1488,-5.1488 5.1488676,5.1488676 0 0 1 5.1488,-5.1489 5.1488676,5.1488676 0 0 1 5.1489,5.1489 z"
           id="circle4571-4" />
        <path
           inkscape:connector-curvature="0"
           transform="scale(-1)"
           style="display:inline;opacity:1;fill:none;fill-opacity:1;fill-rule:nonzero;stroke:#ff0000;stroke-width:0.33218503;stroke-linecap:round;stroke-linejoin:round;stroke-miterlimit:4;stroke-dasharray:none;stroke-dashoffset:0;stroke-opacity:1"
           d="m -3969.5389,1802.2963 a 5.1488676,5.1488676 0 0 1 -5.1488,5.1488 5.1488676,5.1488676 0 0 1 -5.1489,-5.1488 5.1488676,5.1488676 0 0 1 5.1489,-5.1489 5.1488676,5.1488676 0 0 1 5.1488,5.1489 z"
           id="circle4573-2" />
        <path
           inkscape:connector-curvature="0"
           transform="scale(-1)"
           style="display:inline;opacity:1;fill:none;fill-opacity:1;fill-rule:nonzero;stroke:#ff0000;stroke-width:0.33218506;stroke-linecap:round;stroke-linejoin:round;stroke-miterlimit:4;stroke-dasharray:none;stroke-dashoffset:0;stroke-opacity:1"
           d="m -3933.563,1758.1709 a 8.6921759,8.6921759 0 0 1 -8.6921,8.6922 8.6921759,8.6921759 0 0 1 -8.6922,-8.6922 8.6921759,8.6921759 0 0 1 8.6922,-8.6922 8.6921759,8.6921759 0 0 1 8.6921,8.6922 z"
           id="path4583-7" />
      </g>
      <g
         id="g4809"
         transform="translate(-90.047885)">
        <path
           inkscape:connector-curvature="0"
           transform="scale(-1)"
           style="display:inline;opacity:1;fill:none;fill-opacity:1;fill-rule:nonzero;stroke:#ff0000;stroke-width:0.33218503;stroke-linecap:round;stroke-linejoin:round;stroke-miterlimit:4;stroke-dasharray:none;stroke-dashoffset:0;stroke-opacity:1"
           d="m -3897.2552,1709.4617 a 5.1488676,5.1488676 0 0 1 -5.1489,5.1488 5.1488676,5.1488676 0 0 1 -5.1488,-5.1488 5.1488676,5.1488676 0 0 1 5.1488,-5.1489 5.1488676,5.1488676 0 0 1 5.1489,5.1489 z"
           id="circle4799" />
        <path
           inkscape:connector-curvature="0"
           transform="scale(-1)"
           style="display:inline;opacity:1;fill:none;fill-opacity:1;fill-rule:nonzero;stroke:#ff0000;stroke-width:0.33218503;stroke-linecap:round;stroke-linejoin:round;stroke-miterlimit:4;stroke-dasharray:none;stroke-dashoffset:0;stroke-opacity:1"
           d="m -3969.5389,1709.4617 a 5.1488676,5.1488676 0 0 1 -5.1488,5.1488 5.1488676,5.1488676 0 0 1 -5.1489,-5.1488 5.1488676,5.1488676 0 0 1 5.1489,-5.1489 5.1488676,5.1488676 0 0 1 5.1488,5.1489 z"
           id="circle4801" />
        <path
           inkscape:connector-curvature="0"
           transform="scale(-1)"
           style="display:inline;opacity:1;fill:none;fill-opacity:1;fill-rule:nonzero;stroke:#ff0000;stroke-width:0.33218503;stroke-linecap:round;stroke-linejoin:round;stroke-miterlimit:4;stroke-dasharray:none;stroke-dashoffset:0;stroke-opacity:1"
           d="m -3897.2552,1802.2963 a 5.1488676,5.1488676 0 0 1 -5.1489,5.1488 5.1488676,5.1488676 0 0 1 -5.1488,-5.1488 5.1488676,5.1488676 0 0 1 5.1488,-5.1489 5.1488676,5.1488676 0 0 1 5.1489,5.1489 z"
           id="circle4803" />
        <path
           inkscape:connector-curvature="0"
           transform="scale(-1)"
           style="display:inline;opacity:1;fill:none;fill-opacity:1;fill-rule:nonzero;stroke:#ff0000;stroke-width:0.33218503;stroke-linecap:round;stroke-linejoin:round;stroke-miterlimit:4;stroke-dasharray:none;stroke-dashoffset:0;stroke-opacity:1"
           d="m -3969.5389,1802.2963 a 5.1488676,5.1488676 0 0 1 -5.1488,5.1488 5.1488676,5.1488676 0 0 1 -5.1489,-5.1488 5.1488676,5.1488676 0 0 1 5.1489,-5.1489 5.1488676,5.1488676 0 0 1 5.1488,5.1489 z"
           id="circle4805" />
        <path
           inkscape:connector-curvature="0"
           transform="scale(-1)"
           style="display:inline;opacity:1;fill:none;fill-opacity:1;fill-rule:nonzero;stroke:#ff0000;stroke-width:0.33218506;stroke-linecap:round;stroke-linejoin:round;stroke-miterlimit:4;stroke-dasharray:none;stroke-dashoffset:0;stroke-opacity:1"
           d="m -3933.563,1758.1709 a 8.6921759,8.6921759 0 0 1 -8.6921,8.6922 8.6921759,8.6921759 0 0 1 -8.6922,-8.6922 8.6921759,8.6921759 0 0 1 8.6922,-8.6922 8.6921759,8.6921759 0 0 1 8.6921,8.6922 z"
           id="circle4807" />
      </g>
    </g>
    <path
       sodipodi:nodetypes="ccccccccccccccccccccc"
       inkscape:connector-curvature="0"
       d="m 3392.3099,-1443.0049 h 37.7953 v -11.3386 h 37.7952 v 11.3386 h 37.7953 v -11.3386 h 37.7953 v 11.3386 h 37.7953 v 23.593 h -37.7953 v 11.3386 h -37.7953 v -11.3386 h -37.7953 v 11.3386 h -37.7952 v -11.3386 h -37.7953 z"
       id="path7882"
       style="fill:none;stroke:#ff0000" />
    <path
       style="fill:none;stroke:#000000;stroke-width:0.93749994;stroke-opacity:1"
       inkscape:connector-curvature="0"
       d="m 3880.5834,-1362.7355 2.866,-15.4116 c 0.07,-0.375 0.4228,-0.7856 0.7847,-0.9121 l 11.0212,-4.7241 c 0.3403,-0.1763 0.8747,-0.1425 1.1916,0.075 l 13.0875,8.9794 c 0.315,0.2147 0.794,0.1725 1.065,-0.099 l 11.2153,-11.2153 c 0.2709,-0.2709 0.315,-0.749 0.098,-1.064 l -9.1387,-13.3172 c -0.2166,-0.315 -0.255,-0.855 -0.086,-1.1972 l 4.3735,-10.6838 c 0.12,-0.3628 0.5259,-0.7162 0.9018,-0.7875 l 15.9404,-2.9672 c 0.3759,-0.069 0.6834,-0.4396 0.6834,-0.8221 v -15.8625 c 0,-0.3816 -0.3075,-0.7519 -0.6834,-0.8213 l -15.9404,-2.9662 c -0.3759,-0.071 -0.7818,-0.4238 -0.9018,-0.7875 l -4.3735,-10.6847 c -0.1687,-0.3432 -0.1303,-0.8832 0.086,-1.1972 l 9.1388,-13.3163 c 0.2166,-0.3159 0.1725,-0.795 -0.098,-1.065 l -11.2153,-11.2162 c -0.271,-0.27 -0.75,-0.315 -1.065,-0.099 l -13.0875,8.9804 c -0.3169,0.2156 -0.8513,0.2493 -1.1916,0.074 l -11.0212,-4.725 c -0.3619,-0.1256 -0.7144,-0.5353 -0.7847,-0.9122 l -2.866,-15.4106 c -0.071,-0.3769 -0.4406,-0.6834 -0.8231,-0.6834 l -15.8615,9e-4 c -0.3825,0 -0.7547,0.3075 -0.8232,0.6834 l -2.7975,15.0329 c -0.068,0.3759 -0.4256,0.7781 -0.7903,0.8925 l -11.7234,4.6931 c -0.3441,0.1678 -0.8822,0.1284 -1.1972,-0.089 l -12.4434,-8.5387 c -0.315,-0.2157 -0.795,-0.1716 -1.066,0.098 l -11.2153,11.2172 c -0.2691,0.27 -0.3131,0.7491 -0.098,1.065 l 8.3897,12.2231 c 0.2156,0.315 0.2325,0.8428 0.04,1.1719 l -2.8782,5.3906 c -0.1743,0.3413 -0.027,0.7397 0.3263,0.886 l 26.8566,11.115 c 0.3534,0.1471 0.8043,0 1.004,-0.3263 l 0.826,-1.3491 c 0.1518,-0.2493 0.4134,-0.5878 0.6534,-0.8531 3.1162,-4.8665 8.5678,-8.0953 14.7759,-8.0953 9.6882,0 17.5416,7.8544 17.5416,17.5416 0,9.6872 -7.8534,17.5406 -17.5416,17.5406 -6.2081,0 -11.6597,-3.2278 -14.7759,-8.0953 -0.24,-0.2635 -0.5016,-0.6028 -0.6534,-0.8513 l -0.826,-1.349 c -0.1997,-0.3244 -0.6506,-0.4725 -1.004,-0.3263 l -26.8575,11.1141 c -0.3535,0.1462 -0.4997,0.5437 -0.3263,0.8859 l 2.8781,5.3906 c 0.1922,0.33 0.1763,0.8569 -0.04,1.1719 l -8.3897,12.2241 c -0.2147,0.315 -0.1706,0.795 0.099,1.064 l 11.2153,11.2172 c 0.2709,0.271 0.7509,0.315 1.0659,0.099 l 12.4435,-8.5397 c 0.315,-0.2156 0.8531,-0.256 1.1971,-0.088 l 11.7235,4.6931 c 0.3647,0.1153 0.7219,0.5147 0.7903,0.8915 l 2.7975,15.0329 c 0.068,0.375 0.4406,0.6834 0.8231,0.6834 h 15.8616 c 0.3834,9e-4 0.7528,-0.3066 0.824,-0.6816"
       id="path6138" />
  </g>
</svg>
